<svg width="2722" height="1007" viewBox="0 0 2722 1007" fill="none" xmlns="http://www.w3.org/2000/svg">
<path d="M2182.7 291.591C2107.3 302.591 2057 355.191 2048.5 432.191C2046.2 452.591 2047.4 478.991 2051.5 498.891C2055.9 520.591 2066.4 544.391 2078.8 560.991C2087.2 572.291 2103.8 588.091 2114.8 595.391C2146.6 616.391 2189.5 626.191 2231.5 621.991C2293.3 615.691 2343.3 579.591 2363.8 526.491C2368.5 514.191 2369.1 510.391 2366.9 507.991C2365.2 506.091 2363.5 505.991 2320.9 505.991C2268.6 505.991 2272.8 505.291 2244.9 519.091C2224.9 528.991 2218.5 530.991 2207.4 530.991C2181.2 530.891 2165 515.091 2160.9 485.291L2160.2 479.991L2266.3 479.791C2366.5 479.491 2372.4 479.391 2374.1 477.691C2375.7 476.191 2375.9 473.491 2376.2 456.791C2376.7 429.791 2374.6 413.491 2367.8 392.991C2351.1 342.691 2310.9 306.591 2258.1 294.491C2238.3 289.991 2203 288.591 2182.7 291.591ZM2225.2 381.491C2232.8 383.291 2238.2 385.891 2245 391.091C2253.6 397.691 2258.5 406.591 2259.9 418.191L2260.6 423.991H2211C2170.6 423.991 2161.4 423.791 2161.4 422.691C2161.4 420.191 2164.6 410.491 2166.9 405.991C2171.5 396.891 2180.7 387.991 2189.3 384.391C2199.2 380.091 2214.3 378.891 2225.2 381.491Z" fill="white"/>
<path d="M1432.9 291.59C1398 297.89 1368 317.89 1347.4 348.59C1327.8 377.99 1318.4 412.69 1318.4 455.99C1318.4 481.99 1321.5 503.19 1328.5 524.39C1336.6 549.09 1347.5 567.19 1364.9 584.59C1384.2 604.09 1403.2 614.49 1429.7 620.19C1442.1 622.79 1468.4 623.29 1480.4 621.09C1503.9 616.79 1524.4 606.19 1540.1 590.19C1547.4 582.69 1548.5 581.99 1550.3 582.99C1551.9 583.79 1552.4 584.99 1552.4 587.99C1552.4 596.89 1559.2 608.29 1567.5 613.59C1575.5 618.59 1579.5 618.99 1624.6 618.99H1666.5L1666.1 504.19C1665.7 379.29 1666.1 386.99 1660.1 369.49C1657.2 360.99 1650.6 347.59 1646.3 341.29C1628 314.79 1588.4 293.09 1560.4 294.19L1552.9 294.49L1552.4 307.79C1552 319.49 1551.7 321.29 1550 322.59C1546.1 325.39 1542.7 324.29 1536.1 318.19C1520.8 303.89 1502.8 295.19 1481 291.49C1469.8 289.59 1443.8 289.69 1432.9 291.59ZM1509.7 391.49C1526.9 396.69 1542 411.39 1547.9 428.69C1551.4 439.29 1552.8 453.59 1551.5 466.09C1549.5 484.09 1543.7 496.59 1532.4 507.29C1520.2 518.89 1507.4 523.59 1490.4 522.69C1463.6 521.49 1444.6 505.19 1437.3 477.39C1434.6 466.99 1434.4 446.89 1436.9 435.99C1442.5 411.39 1460.6 393.59 1483.8 389.89C1490.4 388.89 1503.7 389.69 1509.7 391.49Z" fill="white"/>
<path d="M934.901 292.09C911.201 295.49 887.601 307.49 870.701 324.69C866.201 329.29 862.301 332.69 862.101 332.29C861.801 331.79 861.301 328.89 861.001 325.79C859.501 313.79 851.101 302.59 839.601 297.19L833.901 294.49L781.301 294.19C729.701 293.99 728.701 293.99 726.901 295.99C725.201 297.89 725.701 301.79 745.301 433.69C756.401 508.39 765.901 571.69 766.501 574.49C768.301 582.59 774.801 594.99 780.301 600.79C786.901 607.59 796.001 613.49 804.301 616.19C810.101 618.09 813.701 618.39 834.101 618.79C856.501 619.19 857.301 619.09 859.301 617.09C861.401 614.99 861.401 614.99 861.401 525.69C861.401 451.19 861.701 435.39 862.901 429.59C868.301 404.09 887.001 389.99 915.401 389.99C943.101 389.99 962.401 405.19 966.901 430.59C968.101 436.99 968.301 455.29 968.401 526.69C968.401 613.59 968.401 614.99 970.401 616.99C972.301 618.89 973.701 618.99 1025.2 618.99C1071.3 618.99 1078.2 618.79 1080.2 617.39L1082.4 615.89V526.99C1082.4 452.39 1082.6 436.89 1083.9 430.29C1088.8 404.59 1107.8 389.99 1136.4 389.99C1161.9 389.99 1179.4 402.09 1187 424.99C1188.7 429.99 1188.9 436.39 1189.4 501.99L1189.9 573.49L1192.2 579.99C1199.2 599.39 1214.9 613.39 1234.2 617.49C1239.2 618.59 1248.9 618.99 1272.2 618.99H1303.4V516.59C1303.4 405.59 1303.3 402.09 1297.9 382.09C1291.6 358.69 1281.4 340.89 1265.2 324.79C1243.4 303.29 1216 292.59 1179.4 291.29C1153.4 290.39 1137.4 293.49 1117.9 302.99C1101.7 310.89 1093.1 317.19 1078.7 331.69C1071.4 338.99 1064.6 344.99 1063.7 344.99C1061.2 344.99 1060.5 344.29 1055.4 337.49C1045 323.49 1030 311.49 1012.1 302.99C994.201 294.39 977.301 290.89 954.901 291.09C947.201 291.19 938.201 291.59 934.901 292.09Z" fill="white"/>
<path d="M509.3 291.591C456.8 301.091 416.3 341.491 401.5 398.991C396.6 418.491 395 431.991 395 455.991C395 479.991 396.6 493.491 401.5 512.791C411.9 553.591 434.9 586.091 466.9 605.291C478 611.891 494.1 617.891 508.4 620.691C519.1 622.791 545.8 623.091 556.4 621.091C580.4 616.791 599.5 606.991 615.8 590.691C626.2 580.291 627.2 580.191 629 590.191C631.3 602.291 637.7 610.891 648.3 615.891L653.9 618.491L698.2 618.791C741.5 619.091 742.4 619.091 742.4 617.091C742.4 612.291 703.3 349.891 701.8 344.991C696.5 326.791 682.4 310.091 665.4 301.691C654.5 296.391 645.7 293.991 636.3 293.991C631.1 293.991 629.5 294.391 629 295.591C628.7 296.491 628.4 302.491 628.4 308.891C628.4 319.091 628.1 320.891 626.6 322.291C623.2 325.391 619.7 324.391 613.1 318.391C597 303.791 578.7 294.991 557 291.491C545.6 289.591 519.6 289.691 509.3 291.591ZM587.6 391.991C605.1 397.391 620.7 414.291 625.9 433.491C628.2 441.991 629 461.091 627.4 470.691C624.7 487.791 616.2 502.491 603.6 511.891C594.2 518.991 585.4 522.091 572.9 522.691C554.9 523.591 542.3 518.891 529.8 506.491C522 498.891 517 489.891 513.8 477.991C511.2 468.791 511.2 443.191 513.7 433.991C520.1 410.191 537 394.091 560 389.991C567 388.691 580.1 389.691 587.6 391.991Z" fill="white"/>
<path d="M1802.4 291.209C1803.8 291.009 1813.7 290.909 1824.4 291.109C1840.2 291.309 1845.5 291.809 1852.3 293.509C1870.5 298.109 1886.6 306.509 1899 317.809C1907.1 325.209 1910.7 326.309 1914.4 322.609C1916.2 320.809 1916.4 319.308 1916.4 309.509C1916.4 303.409 1916.9 297.609 1917.4 296.509C1918.3 294.909 1919.6 294.609 1926.7 294.609C1936.8 294.609 1950.3 297.309 1960.9 301.509C1993.9 314.309 2017.7 340.91 2027.2 375.41L2029.9 385.109L2030.2 506.609C2030.39 587.444 2030.41 618.694 2029.32 635.997C2022.89 634.049 2016.07 633 2009 633C1970.34 633 1939 664.34 1939 703C1939 723.543 1947.85 742.018 1961.94 754.824C1944.39 765.682 1923.76 773.122 1900.4 776.809C1886.9 778.909 1839.8 778.609 1825.9 776.309C1784.7 769.509 1756.7 756.209 1732.8 732.209C1712.8 712.109 1705.1 697.309 1707.4 683.309C1709.9 668.009 1722.5 654.809 1739.9 649.309C1746 647.409 1749.7 645.5 1765 645.5C1787.1 645.5 1788.5 647.81 1811.6 663.209C1831.9 676.909 1836.4 678.609 1853.9 679.309C1869.6 680.009 1878.3 678.509 1888.4 673.509C1901.6 666.909 1909 657.009 1913.5 640.109C1915.1 633.909 1915.7 628.009 1916.1 613.91C1916.4 604.01 1916.4 594.71 1916.1 593.41C1915.4 590.91 1911.8 588.609 1908.5 588.609C1907.6 588.609 1905.5 590.009 1903.8 591.709C1898.6 597.209 1885.3 606.609 1876.5 611.009C1866.7 616.009 1855.3 619.809 1844.4 621.709C1833.6 623.709 1807.1 623.409 1796.2 621.309C1736.8 609.509 1695.7 561.909 1684.9 492.609C1682.7 477.909 1681.9 449.809 1683.3 434.609C1685.9 407.809 1691.5 387.009 1701.9 366.109C1720.9 327.809 1752.2 302.209 1790.5 293.709C1795.7 292.609 1801 291.409 1802.4 291.209ZM1867.4 390.609C1853.1 388.409 1838.5 391.009 1827.9 397.709C1815.9 405.309 1807.6 416.009 1802.8 430.109C1799.2 440.709 1798.3 461.709 1800.8 474.709C1806.6 504.109 1829.1 523.609 1857.4 523.609C1873.6 523.609 1885.8 518.409 1897.4 506.709C1906 498.109 1910.2 490.809 1913.6 479.109C1915.5 472.409 1915.8 468.809 1915.8 456.609C1915.7 433.209 1911 420.409 1897.8 406.91C1889.5 398.41 1878.1 392.309 1867.4 390.609Z" fill="white"/>
<path fill-rule="evenodd" clip-rule="evenodd" d="M1995.37 652.114C1985.03 655.127 1975.84 661.186 1969 669.501C1962.15 677.816 1957.97 688.001 1957 698.728H1981.46C1982.88 682.405 1987.62 666.543 1995.37 652.107L1995.37 652.114ZM1981.46 708.282H1957C1957.97 719.009 1962.15 729.195 1968.99 737.512C1975.83 745.829 1985.03 751.889 1995.37 754.903C1987.62 740.467 1982.88 724.605 1981.46 708.282ZM2007.63 756.944C1998.36 742.247 1992.68 725.578 1991.04 708.282H2029.52C2027.89 725.578 2022.2 742.247 2012.94 756.944C2011.17 757.032 2009.4 757.032 2007.63 756.944ZM2025.2 754.896C2035.54 751.882 2044.74 745.823 2051.58 737.507C2058.42 729.192 2062.6 719.008 2063.57 708.282H2039.11C2037.69 724.605 2032.96 740.467 2025.2 754.903V754.896ZM2039.11 698.728H2063.57C2062.6 688.001 2058.43 677.815 2051.58 669.498C2044.74 661.181 2035.55 655.121 2025.2 652.107C2032.96 666.543 2037.69 682.405 2039.11 698.728ZM2007.63 650.066C2009.4 649.978 2011.17 649.978 2012.95 650.066C2022.21 664.763 2027.89 681.432 2029.52 698.728H1991.05C1992.71 681.325 1998.4 664.641 2007.63 650.066Z" fill="white"/>
<path d="M399.641 721.128C399.641 714.187 401.063 708.04 403.906 702.688C406.833 697.336 410.764 693.196 415.698 690.269C420.715 687.259 426.235 685.754 432.256 685.754C437.691 685.754 442.416 686.841 446.43 689.015C450.528 691.106 453.79 693.74 456.215 696.918V686.883H470.64V756H456.215V745.714C453.79 748.975 450.486 751.693 446.305 753.868C442.124 756.042 437.357 757.129 432.005 757.129C426.067 757.129 420.632 755.624 415.698 752.613C410.764 749.519 406.833 745.254 403.906 739.818C401.063 734.299 399.641 728.069 399.641 721.128ZM456.215 721.379C456.215 716.612 455.211 712.472 453.204 708.96C451.281 705.448 448.73 702.772 445.552 700.932C442.375 699.092 438.946 698.172 435.266 698.172C431.587 698.172 428.158 699.092 424.98 700.932C421.802 702.688 419.21 705.322 417.203 708.835C415.279 712.263 414.318 716.361 414.318 721.128C414.318 725.894 415.279 730.076 417.203 733.672C419.21 737.268 421.802 740.027 424.98 741.951C428.242 743.791 431.67 744.71 435.266 744.71C438.946 744.71 442.375 743.791 445.552 741.951C448.73 740.111 451.281 737.435 453.204 733.923C455.211 730.327 456.215 726.145 456.215 721.379ZM517.271 685.754C522.623 685.754 527.348 686.841 531.445 689.015C535.627 691.106 538.888 693.74 541.23 696.918V686.883H555.655V757.129C555.655 763.485 554.317 769.129 551.641 774.063C548.965 779.081 545.077 783.011 539.975 785.855C534.958 788.698 528.937 790.12 521.912 790.12C512.546 790.12 504.768 787.904 498.58 783.471C492.392 779.123 488.879 773.185 488.043 765.659H502.218C503.305 769.255 505.605 772.14 509.117 774.314C512.713 776.572 516.978 777.701 521.912 777.701C527.682 777.701 532.323 775.945 535.836 772.433C539.432 768.92 541.23 763.819 541.23 757.129V745.588C538.805 748.85 535.501 751.61 531.32 753.868C527.222 756.042 522.539 757.129 517.271 757.129C511.25 757.129 505.73 755.624 500.713 752.613C495.779 749.519 491.848 745.254 488.921 739.818C486.078 734.299 484.656 728.069 484.656 721.128C484.656 714.187 486.078 708.04 488.921 702.688C491.848 697.336 495.779 693.196 500.713 690.269C505.73 687.259 511.25 685.754 517.271 685.754ZM541.23 721.379C541.23 716.612 540.226 712.472 538.219 708.96C536.296 705.448 533.745 702.772 530.567 700.932C527.39 699.092 523.961 698.172 520.281 698.172C516.602 698.172 513.173 699.092 509.995 700.932C506.817 702.688 504.225 705.322 502.218 708.835C500.294 712.263 499.333 716.361 499.333 721.128C499.333 725.894 500.294 730.076 502.218 733.672C504.225 737.268 506.817 740.027 509.995 741.951C513.257 743.791 516.685 744.71 520.281 744.71C523.961 744.71 527.39 743.791 530.567 741.951C533.745 740.111 536.296 737.435 538.219 733.923C540.226 730.327 541.23 726.145 541.23 721.379ZM637.785 719.748C637.785 722.34 637.618 724.682 637.283 726.772H584.473C584.891 732.292 586.94 736.724 590.62 740.069C594.299 743.414 598.815 745.087 604.167 745.087C611.861 745.087 617.297 741.867 620.474 735.428H635.904C633.813 741.783 630.008 747.01 624.489 751.108C619.053 755.122 612.279 757.129 604.167 757.129C597.561 757.129 591.623 755.665 586.355 752.739C581.17 749.728 577.072 745.547 574.062 740.195C571.135 734.759 569.671 728.487 569.671 721.379C569.671 714.27 571.093 708.04 573.936 702.688C576.863 697.252 580.919 693.071 586.104 690.144C591.372 687.217 597.394 685.754 604.167 685.754C610.69 685.754 616.502 687.175 621.603 690.019C626.705 692.862 630.677 696.876 633.52 702.061C636.364 707.162 637.785 713.058 637.785 719.748ZM622.858 715.232C622.774 709.964 620.893 705.74 617.213 702.563C613.533 699.385 608.976 697.796 603.54 697.796C598.606 697.796 594.383 699.385 590.871 702.563C587.358 705.657 585.268 709.88 584.599 715.232H622.858ZM603.791 671.203L585.853 681.99V670.826L603.791 660.415L621.729 670.826V681.99L603.791 671.203ZM686.73 685.754C692.166 685.754 697.016 686.883 701.281 689.14C705.63 691.398 709.017 694.743 711.442 699.176C713.867 703.608 715.08 708.96 715.08 715.232V756H700.905V717.364C700.905 711.176 699.358 706.451 696.264 703.19C693.17 699.845 688.946 698.172 683.594 698.172C678.242 698.172 673.977 699.845 670.799 703.19C667.705 706.451 666.158 711.176 666.158 717.364V756H651.858V686.883H666.158V694.785C668.5 691.942 671.468 689.726 675.064 688.137C678.744 686.548 682.633 685.754 686.73 685.754ZM728.554 721.379C728.554 714.27 729.975 708.04 732.819 702.688C735.746 697.252 739.76 693.071 744.861 690.144C749.962 687.217 755.816 685.754 762.423 685.754C770.785 685.754 777.684 687.761 783.12 691.775C788.64 695.705 792.361 701.35 794.284 708.709H778.855C777.601 705.28 775.594 702.604 772.834 700.681C770.074 698.758 766.604 697.796 762.423 697.796C756.569 697.796 751.886 699.887 748.373 704.068C744.945 708.166 743.23 713.936 743.23 721.379C743.23 728.821 744.945 734.633 748.373 738.815C751.886 742.996 756.569 745.087 762.423 745.087C770.702 745.087 776.179 741.449 778.855 734.173H794.284C792.277 741.198 788.514 746.801 782.995 750.982C777.475 755.08 770.618 757.129 762.423 757.129C755.816 757.129 749.962 755.665 744.861 752.739C739.76 749.728 735.746 745.547 732.819 740.195C729.975 734.759 728.554 728.487 728.554 721.379ZM815.811 677.725C813.219 677.725 811.044 676.847 809.288 675.091C807.532 673.335 806.654 671.161 806.654 668.568C806.654 665.976 807.532 663.802 809.288 662.045C811.044 660.289 813.219 659.411 815.811 659.411C818.32 659.411 820.452 660.289 822.208 662.045C823.965 663.802 824.843 665.976 824.843 668.568C824.843 671.161 823.965 673.335 822.208 675.091C820.452 676.847 818.32 677.725 815.811 677.725ZM822.836 686.883V756H808.536V686.883H822.836ZM836.844 721.128C836.844 714.187 838.265 708.04 841.109 702.688C844.036 697.336 847.966 693.196 852.9 690.269C857.918 687.259 863.437 685.754 869.458 685.754C874.894 685.754 879.619 686.841 883.633 689.015C887.731 691.106 890.992 693.74 893.417 696.918V686.883H907.843V756H893.417V745.714C890.992 748.975 887.689 751.693 883.507 753.868C879.326 756.042 874.559 757.129 869.207 757.129C863.27 757.129 857.834 755.624 852.9 752.613C847.966 749.519 844.036 745.254 841.109 739.818C838.265 734.299 836.844 728.069 836.844 721.128ZM893.417 721.379C893.417 716.612 892.414 712.472 890.407 708.96C888.483 705.448 885.933 702.772 882.755 700.932C879.577 699.092 876.148 698.172 872.469 698.172C868.789 698.172 865.36 699.092 862.183 700.932C859.005 702.688 856.412 705.322 854.405 708.835C852.482 712.263 851.52 716.361 851.52 721.128C851.52 725.894 852.482 730.076 854.405 733.672C856.412 737.268 859.005 740.027 862.183 741.951C865.444 743.791 868.873 744.71 872.469 744.71C876.148 744.71 879.577 743.791 882.755 741.951C885.933 740.111 888.483 737.435 890.407 733.923C892.414 730.327 893.417 726.145 893.417 721.379ZM1052.04 686.883L1030.59 756H1015.53L1001.61 704.946L987.685 756H972.633L951.057 686.883H965.608L980.034 742.452L994.71 686.883H1009.64L1023.69 742.202L1037.99 686.883H1052.04ZM1126.07 719.748C1126.07 722.34 1125.9 724.682 1125.57 726.772H1072.76C1073.18 732.292 1075.23 736.724 1078.9 740.069C1082.58 743.414 1087.1 745.087 1092.45 745.087C1100.15 745.087 1105.58 741.867 1108.76 735.428H1124.19C1122.1 741.783 1118.29 747.01 1112.77 751.108C1107.34 755.122 1100.56 757.129 1092.45 757.129C1085.85 757.129 1079.91 755.665 1074.64 752.739C1069.45 749.728 1065.36 745.547 1062.35 740.195C1059.42 734.759 1057.96 728.487 1057.96 721.379C1057.96 714.27 1059.38 708.04 1062.22 702.688C1065.15 697.252 1069.2 693.071 1074.39 690.144C1079.66 687.217 1085.68 685.754 1092.45 685.754C1098.98 685.754 1104.79 687.175 1109.89 690.019C1114.99 692.862 1118.96 696.876 1121.81 702.061C1124.65 707.162 1126.07 713.058 1126.07 719.748ZM1111.14 715.232C1111.06 709.964 1109.18 705.74 1105.5 702.563C1101.82 699.385 1097.26 697.796 1091.83 697.796C1086.89 697.796 1082.67 699.385 1079.16 702.563C1075.64 705.657 1073.55 709.88 1072.88 715.232H1111.14ZM1154.44 697.169C1156.87 693.824 1160.17 691.106 1164.35 689.015C1168.62 686.841 1173.34 685.754 1178.53 685.754C1184.63 685.754 1190.15 687.217 1195.09 690.144C1200.02 693.071 1203.91 697.252 1206.75 702.688C1209.59 708.04 1211.02 714.187 1211.02 721.128C1211.02 728.069 1209.59 734.299 1206.75 739.818C1203.91 745.254 1199.98 749.519 1194.96 752.613C1190.03 755.624 1184.55 757.129 1178.53 757.129C1173.18 757.129 1168.41 756.084 1164.23 753.993C1160.13 751.902 1156.87 749.226 1154.44 745.965V756H1140.14V663.174H1154.44V697.169ZM1196.47 721.128C1196.47 716.361 1195.46 712.263 1193.45 708.835C1191.53 705.322 1188.94 702.688 1185.68 700.932C1182.5 699.092 1179.07 698.172 1175.39 698.172C1171.8 698.172 1168.37 699.092 1165.11 700.932C1161.93 702.772 1159.34 705.448 1157.33 708.96C1155.4 712.472 1154.44 716.612 1154.44 721.379C1154.44 726.145 1155.4 730.327 1157.33 733.923C1159.34 737.435 1161.93 740.111 1165.11 741.951C1168.37 743.791 1171.8 744.71 1175.39 744.71C1179.07 744.71 1182.5 743.791 1185.68 741.951C1188.94 740.027 1191.53 737.268 1193.45 733.672C1195.46 730.076 1196.47 725.894 1196.47 721.128Z" fill="#00B4D8"/>
<path d="M399.641 721.128C399.641 714.187 401.063 708.04 403.906 702.688C406.833 697.336 410.764 693.196 415.698 690.269C420.715 687.259 426.235 685.754 432.256 685.754C437.691 685.754 442.416 686.841 446.43 689.015C450.528 691.106 453.79 693.74 456.215 696.918V686.883H470.64V756H456.215V745.714C453.79 748.975 450.486 751.693 446.305 753.868C442.124 756.042 437.357 757.129 432.005 757.129C426.067 757.129 420.632 755.624 415.698 752.613C410.764 749.519 406.833 745.254 403.906 739.818C401.063 734.299 399.641 728.069 399.641 721.128ZM456.215 721.379C456.215 716.612 455.211 712.472 453.204 708.96C451.281 705.448 448.73 702.772 445.552 700.932C442.375 699.092 438.946 698.172 435.266 698.172C431.587 698.172 428.158 699.092 424.98 700.932C421.802 702.688 419.21 705.322 417.203 708.835C415.279 712.263 414.318 716.361 414.318 721.128C414.318 725.894 415.279 730.076 417.203 733.672C419.21 737.268 421.802 740.027 424.98 741.951C428.242 743.791 431.67 744.71 435.266 744.71C438.946 744.71 442.375 743.791 445.552 741.951C448.73 740.111 451.281 737.435 453.204 733.923C455.211 730.327 456.215 726.145 456.215 721.379ZM517.271 685.754C522.623 685.754 527.348 686.841 531.445 689.015C535.627 691.106 538.888 693.74 541.23 696.918V686.883H555.655V757.129C555.655 763.485 554.317 769.129 551.641 774.063C548.965 779.081 545.077 783.011 539.975 785.855C534.958 788.698 528.937 790.12 521.912 790.12C512.546 790.12 504.768 787.904 498.58 783.471C492.392 779.123 488.879 773.185 488.043 765.659H502.218C503.305 769.255 505.605 772.14 509.117 774.314C512.713 776.572 516.978 777.701 521.912 777.701C527.682 777.701 532.323 775.945 535.836 772.433C539.432 768.92 541.23 763.819 541.23 757.129V745.588C538.805 748.85 535.501 751.61 531.32 753.868C527.222 756.042 522.539 757.129 517.271 757.129C511.25 757.129 505.73 755.624 500.713 752.613C495.779 749.519 491.848 745.254 488.921 739.818C486.078 734.299 484.656 728.069 484.656 721.128C484.656 714.187 486.078 708.04 488.921 702.688C491.848 697.336 495.779 693.196 500.713 690.269C505.73 687.259 511.25 685.754 517.271 685.754ZM541.23 721.379C541.23 716.612 540.226 712.472 538.219 708.96C536.296 705.448 533.745 702.772 530.567 700.932C527.39 699.092 523.961 698.172 520.281 698.172C516.602 698.172 513.173 699.092 509.995 700.932C506.817 702.688 504.225 705.322 502.218 708.835C500.294 712.263 499.333 716.361 499.333 721.128C499.333 725.894 500.294 730.076 502.218 733.672C504.225 737.268 506.817 740.027 509.995 741.951C513.257 743.791 516.685 744.71 520.281 744.71C523.961 744.71 527.39 743.791 530.567 741.951C533.745 740.111 536.296 737.435 538.219 733.923C540.226 730.327 541.23 726.145 541.23 721.379ZM637.785 719.748C637.785 722.34 637.618 724.682 637.283 726.772H584.473C584.891 732.292 586.94 736.724 590.62 740.069C594.299 743.414 598.815 745.087 604.167 745.087C611.861 745.087 617.297 741.867 620.474 735.428H635.904C633.813 741.783 630.008 747.01 624.489 751.108C619.053 755.122 612.279 757.129 604.167 757.129C597.561 757.129 591.623 755.665 586.355 752.739C581.17 749.728 577.072 745.547 574.062 740.195C571.135 734.759 569.671 728.487 569.671 721.379C569.671 714.27 571.093 708.04 573.936 702.688C576.863 697.252 580.919 693.071 586.104 690.144C591.372 687.217 597.394 685.754 604.167 685.754C610.69 685.754 616.502 687.175 621.603 690.019C626.705 692.862 630.677 696.876 633.52 702.061C636.364 707.162 637.785 713.058 637.785 719.748ZM622.858 715.232C622.774 709.964 620.893 705.74 617.213 702.563C613.533 699.385 608.976 697.796 603.54 697.796C598.606 697.796 594.383 699.385 590.871 702.563C587.358 705.657 585.268 709.88 584.599 715.232H622.858ZM603.791 671.203L585.853 681.99V670.826L603.791 660.415L621.729 670.826V681.99L603.791 671.203ZM686.73 685.754C692.166 685.754 697.016 686.883 701.281 689.14C705.63 691.398 709.017 694.743 711.442 699.176C713.867 703.608 715.08 708.96 715.08 715.232V756H700.905V717.364C700.905 711.176 699.358 706.451 696.264 703.19C693.17 699.845 688.946 698.172 683.594 698.172C678.242 698.172 673.977 699.845 670.799 703.19C667.705 706.451 666.158 711.176 666.158 717.364V756H651.858V686.883H666.158V694.785C668.5 691.942 671.468 689.726 675.064 688.137C678.744 686.548 682.633 685.754 686.73 685.754ZM728.554 721.379C728.554 714.27 729.975 708.04 732.819 702.688C735.746 697.252 739.76 693.071 744.861 690.144C749.962 687.217 755.816 685.754 762.423 685.754C770.785 685.754 777.684 687.761 783.12 691.775C788.64 695.705 792.361 701.35 794.284 708.709H778.855C777.601 705.28 775.594 702.604 772.834 700.681C770.074 698.758 766.604 697.796 762.423 697.796C756.569 697.796 751.886 699.887 748.373 704.068C744.945 708.166 743.23 713.936 743.23 721.379C743.23 728.821 744.945 734.633 748.373 738.815C751.886 742.996 756.569 745.087 762.423 745.087C770.702 745.087 776.179 741.449 778.855 734.173H794.284C792.277 741.198 788.514 746.801 782.995 750.982C777.475 755.08 770.618 757.129 762.423 757.129C755.816 757.129 749.962 755.665 744.861 752.739C739.76 749.728 735.746 745.547 732.819 740.195C729.975 734.759 728.554 728.487 728.554 721.379ZM815.811 677.725C813.219 677.725 811.044 676.847 809.288 675.091C807.532 673.335 806.654 671.161 806.654 668.568C806.654 665.976 807.532 663.802 809.288 662.045C811.044 660.289 813.219 659.411 815.811 659.411C818.32 659.411 820.452 660.289 822.208 662.045C823.965 663.802 824.843 665.976 824.843 668.568C824.843 671.161 823.965 673.335 822.208 675.091C820.452 676.847 818.32 677.725 815.811 677.725ZM822.836 686.883V756H808.536V686.883H822.836ZM836.844 721.128C836.844 714.187 838.265 708.04 841.109 702.688C844.036 697.336 847.966 693.196 852.9 690.269C857.918 687.259 863.437 685.754 869.458 685.754C874.894 685.754 879.619 686.841 883.633 689.015C887.731 691.106 890.992 693.74 893.417 696.918V686.883H907.843V756H893.417V745.714C890.992 748.975 887.689 751.693 883.507 753.868C879.326 756.042 874.559 757.129 869.207 757.129C863.27 757.129 857.834 755.624 852.9 752.613C847.966 749.519 844.036 745.254 841.109 739.818C838.265 734.299 836.844 728.069 836.844 721.128ZM893.417 721.379C893.417 716.612 892.414 712.472 890.407 708.96C888.483 705.448 885.933 702.772 882.755 700.932C879.577 699.092 876.148 698.172 872.469 698.172C868.789 698.172 865.36 699.092 862.183 700.932C859.005 702.688 856.412 705.322 854.405 708.835C852.482 712.263 851.52 716.361 851.52 721.128C851.52 725.894 852.482 730.076 854.405 733.672C856.412 737.268 859.005 740.027 862.183 741.951C865.444 743.791 868.873 744.71 872.469 744.71C876.148 744.71 879.577 743.791 882.755 741.951C885.933 740.111 888.483 737.435 890.407 733.923C892.414 730.327 893.417 726.145 893.417 721.379ZM1052.04 686.883L1030.59 756H1015.53L1001.61 704.946L987.685 756H972.633L951.057 686.883H965.608L980.034 742.452L994.71 686.883H1009.64L1023.69 742.202L1037.99 686.883H1052.04ZM1126.07 719.748C1126.07 722.34 1125.9 724.682 1125.57 726.772H1072.76C1073.18 732.292 1075.23 736.724 1078.9 740.069C1082.58 743.414 1087.1 745.087 1092.45 745.087C1100.15 745.087 1105.58 741.867 1108.76 735.428H1124.19C1122.1 741.783 1118.29 747.01 1112.77 751.108C1107.34 755.122 1100.56 757.129 1092.45 757.129C1085.85 757.129 1079.91 755.665 1074.64 752.739C1069.45 749.728 1065.36 745.547 1062.35 740.195C1059.42 734.759 1057.96 728.487 1057.96 721.379C1057.96 714.27 1059.38 708.04 1062.22 702.688C1065.15 697.252 1069.2 693.071 1074.39 690.144C1079.66 687.217 1085.68 685.754 1092.45 685.754C1098.98 685.754 1104.79 687.175 1109.89 690.019C1114.99 692.862 1118.96 696.876 1121.81 702.061C1124.65 707.162 1126.07 713.058 1126.07 719.748ZM1111.14 715.232C1111.06 709.964 1109.18 705.74 1105.5 702.563C1101.82 699.385 1097.26 697.796 1091.83 697.796C1086.89 697.796 1082.67 699.385 1079.16 702.563C1075.64 705.657 1073.55 709.88 1072.88 715.232H1111.14ZM1154.44 697.169C1156.87 693.824 1160.17 691.106 1164.35 689.015C1168.62 686.841 1173.34 685.754 1178.53 685.754C1184.63 685.754 1190.15 687.217 1195.09 690.144C1200.02 693.071 1203.91 697.252 1206.75 702.688C1209.59 708.04 1211.02 714.187 1211.02 721.128C1211.02 728.069 1209.59 734.299 1206.75 739.818C1203.91 745.254 1199.98 749.519 1194.96 752.613C1190.03 755.624 1184.55 757.129 1178.53 757.129C1173.18 757.129 1168.41 756.084 1164.23 753.993C1160.13 751.902 1156.87 749.226 1154.44 745.965V756H1140.14V663.174H1154.44V697.169ZM1196.47 721.128C1196.47 716.361 1195.46 712.263 1193.45 708.835C1191.53 705.322 1188.94 702.688 1185.68 700.932C1182.5 699.092 1179.07 698.172 1175.39 698.172C1171.8 698.172 1168.37 699.092 1165.11 700.932C1161.93 702.772 1159.34 705.448 1157.33 708.96C1155.4 712.472 1154.44 716.612 1154.44 721.379C1154.44 726.145 1155.4 730.327 1157.33 733.923C1159.34 737.435 1161.93 740.111 1165.11 741.951C1168.37 743.791 1171.8 744.71 1175.39 744.71C1179.07 744.71 1182.5 743.791 1185.68 741.951C1188.94 740.027 1191.53 737.268 1193.45 733.672C1195.46 730.076 1196.47 725.894 1196.47 721.128Z" fill="white"/>
</svg>
